<?xml version="1.0" encoding="UTF-8" standalone="no"?>
<!-- Created with Inkscape (http://www.inkscape.org/) -->

<svg
   xmlns:dc="http://purl.org/dc/elements/1.1/"
   xmlns:cc="http://creativecommons.org/ns#"
   xmlns:rdf="http://www.w3.org/1999/02/22-rdf-syntax-ns#"
   xmlns:svg="http://www.w3.org/2000/svg"
   xmlns="http://www.w3.org/2000/svg"
   xmlns:sodipodi="http://sodipodi.sourceforge.net/DTD/sodipodi-0.dtd"
   xmlns:inkscape="http://www.inkscape.org/namespaces/inkscape"
   width="210mm"
   height="210mm"
   viewBox="0 0 210 210"
   version="1.1"
   id="svg8"
   inkscape:version="0.92.3 (2405546, 2018-03-11)"
   sodipodi:docname="allow icon.svg"
   inkscape:export-filename="C:\Users\netzw\Downloads\webpage\files\icon\sb.png"
   inkscape:export-xdpi="96"
   inkscape:export-ydpi="96">
  <defs
     id="defs2" />
  <sodipodi:namedview
     id="base"
     pagecolor="#ffffff"
     bordercolor="#666666"
     borderopacity="1.0"
     inkscape:pageopacity="0.0"
     inkscape:pageshadow="2"
     inkscape:zoom="0.35"
     inkscape:cx="350"
     inkscape:cy="560"
     inkscape:document-units="mm"
     inkscape:current-layer="layer1"
     showgrid="false"
     inkscape:window-width="1366"
     inkscape:window-height="705"
     inkscape:window-x="-8"
     inkscape:window-y="-8"
     inkscape:window-maximized="1" />
  <metadata
     id="metadata5">
    <rdf:RDF>
      <cc:Work
         rdf:about="">
        <dc:format>image/svg+xml</dc:format>
        <dc:type
           rdf:resource="http://purl.org/dc/dcmitype/StillImage" />
        <dc:title></dc:title>
        <cc:license
           rdf:resource="http://creativecommons.org/licenses/by-sa/4.0/" />
      </cc:Work>
      <cc:License
         rdf:about="http://creativecommons.org/licenses/by-sa/4.0/">
        <cc:permits
           rdf:resource="http://creativecommons.org/ns#Reproduction" />
        <cc:permits
           rdf:resource="http://creativecommons.org/ns#Distribution" />
        <cc:requires
           rdf:resource="http://creativecommons.org/ns#Notice" />
        <cc:requires
           rdf:resource="http://creativecommons.org/ns#Attribution" />
        <cc:permits
           rdf:resource="http://creativecommons.org/ns#DerivativeWorks" />
        <cc:requires
           rdf:resource="http://creativecommons.org/ns#ShareAlike" />
      </cc:License>
    </rdf:RDF>
  </metadata>
  <g
     inkscape:label="Ebene 1"
     inkscape:groupmode="layer"
     id="layer1"
     transform="translate(0,-87)">
    <g
       id="Layer_1"
       transform="matrix(0.42372428,0,0,0.45099764,13.577777,113.73304)">
      <path
         id="path18"
         d="m 157.564,55.003 c 0,-1.756 1.422,-3.182 3.182,-3.182 1.759,0 3.182,1.426 3.182,3.182 0,1.758 -1.423,3.183 -3.182,3.183 -1.76,0 -3.182,-1.425 -3.182,-3.183 m 16.864,32.142 c -1.716,0 -3.104,-1.39 -3.104,-3.104 0,-1.713 1.388,-3.105 3.104,-3.105 1.717,0 3.105,1.392 3.105,3.105 0,1.714 -1.388,3.104 -3.105,3.104 M 139.813,68.926 c 0,-2.417 1.958,-4.376 4.376,-4.376 2.417,0 4.375,1.959 4.375,4.376 0,2.416 -1.958,4.375 -4.375,4.375 -2.418,0 -4.376,-1.959 -4.376,-4.375 m -43.081,68.796 c -1.82,0 -3.294,-1.476 -3.294,-3.296 0,-1.818 1.474,-3.296 3.294,-3.296 1.822,0 3.294,1.478 3.294,3.296 0,1.82 -1.472,3.296 -3.294,3.296 m -24.463,30.117 c 0,-1.061 0.861,-1.922 1.924,-1.922 1.063,0 1.924,0.861 1.924,1.922 0,1.062 -0.861,1.922 -1.924,1.922 -1.063,0 -1.924,-0.86 -1.924,-1.922 M 58.13,142.381 c 0,-2.572 2.085,-4.659 4.658,-4.659 2.573,0 4.658,2.087 4.658,4.659 0,2.574 -2.085,4.66 -4.658,4.66 -2.573,0 -4.658,-2.086 -4.658,-4.66 m 25.078,10.077 c -1.464,0 -2.65,-1.186 -2.65,-2.651 0,-1.464 1.186,-2.65 2.65,-2.65 1.463,0 2.651,1.186 2.651,2.65 0,1.465 -1.188,2.651 -2.651,2.651 m 232.829,68.02 c -1.319,0 -2.388,-1.069 -2.388,-2.387 0,-1.319 1.069,-2.387 2.388,-2.387 1.316,0 2.385,1.068 2.385,2.387 0,1.318 -1.069,2.387 -2.385,2.387 m -26.652,36.992 c -2.196,0 -3.978,-1.78 -3.978,-3.977 0,-2.197 1.782,-3.978 3.978,-3.978 2.197,0 3.978,1.781 3.978,3.978 0,2.197 -1.781,3.977 -3.978,3.977 m -25.059,6.763 c -1.76,0 -3.182,-1.425 -3.182,-3.183 0,-1.756 1.422,-3.182 3.182,-3.182 1.759,0 3.181,1.426 3.181,3.182 0,1.758 -1.422,3.183 -3.181,3.183 m -5.57,-27.845 c -1.317,0 -2.386,-1.069 -2.386,-2.387 0,-1.316 1.069,-2.387 2.386,-2.387 1.318,0 2.388,1.071 2.388,2.387 0,1.318 -1.07,2.387 -2.388,2.387 m -8.353,52.009 c -1.483,0 -2.685,-1.203 -2.685,-2.685 0,-1.483 1.202,-2.686 2.685,-2.686 1.482,0 2.685,1.203 2.685,2.686 0,1.482 -1.203,2.685 -2.685,2.685 m -24.528,6.862 c -2.636,0 -4.773,-2.137 -4.773,-4.774 0,-2.636 2.137,-4.773 4.773,-4.773 2.635,0 4.773,2.137 4.773,4.773 0,2.637 -2.138,4.774 -4.773,4.774 m -7.956,-43.756 c 0,-2.197 1.782,-3.977 3.978,-3.977 2.198,0 3.978,1.78 3.978,3.977 0,2.197 -1.78,3.978 -3.978,3.978 -2.196,0 -3.978,-1.781 -3.978,-3.978 m -19.625,3.978 c -1.095,0 -1.987,-0.89 -1.987,-1.988 0,-1.099 0.892,-1.99 1.987,-1.99 1.098,0 1.989,0.891 1.989,1.99 0,1.098 -0.891,1.988 -1.989,1.988 m -12.196,26.834 c -2.079,0 -3.765,-1.685 -3.765,-3.763 0,-2.078 1.686,-3.764 3.765,-3.764 2.079,0 3.763,1.686 3.763,3.764 0,2.078 -1.684,3.763 -3.763,3.763 m -2.919,29.571 c -3.691,0 -6.681,-2.992 -6.681,-6.684 0,-3.689 2.99,-6.682 6.681,-6.682 3.694,0 6.682,2.993 6.682,6.682 0,3.692 -2.988,6.684 -6.682,6.684 M 152.55,284.917 c -1.758,0 -3.181,-1.426 -3.181,-3.182 0,-1.757 1.423,-3.183 3.181,-3.183 1.761,0 3.183,1.426 3.183,3.183 0,1.756 -1.422,3.182 -3.183,3.182 m 132.06,-78.725 13.132,-1.228 c 0,0 1.986,15.713 0.263,29.037 -0.898,-1.176 -32.365,-16.063 -42.083,-20.643 -3.695,0.862 -7.352,1.69 -10.953,2.479 -12.867,2.816 -22.636,4.793 -37.589,8.432 l 2.053,12.119 -26.49,-5.885 c -8.341,2.209 -18.067,4.851 -29.625,8.06 l -23.043,19.704 5.314,-14.739 c -9.629,2.717 -20.316,5.76 -32.273,9.194 l 17.81,40.547 c 0,0 -25.455,-11.93 -34.472,-20.418 -2.17,-2.041 -6.97,-3.268 -13.312,-3.909 26.813,35.073 69.065,57.741 116.519,57.741 77.207,0 140.662,-59.989 146.211,-135.805 -15.839,5.305 -33.584,10.56 -51.462,15.314 M 81.086,221.854 c -2.079,0 -3.764,-1.685 -3.764,-3.763 0,-2.078 1.685,-3.764 3.764,-3.764 2.079,0 3.763,1.686 3.763,3.764 0,2.078 -1.684,3.763 -3.763,3.763 M 59.472,208.843 c -1.482,0 -2.685,-1.203 -2.685,-2.686 0,-1.482 1.203,-2.685 2.685,-2.685 1.483,0 2.686,1.203 2.686,2.685 0,1.483 -1.203,2.686 -2.686,2.686 m 44.551,-5.371 c 1.482,0 2.685,1.203 2.685,2.685 0,1.483 -1.203,2.686 -2.685,2.686 -1.482,0 -2.686,-1.203 -2.686,-2.686 0,-1.482 1.204,-2.685 2.686,-2.685 m 41.368,-89.1 c 1.482,0 2.685,1.203 2.685,2.685 0,1.482 -1.203,2.684 -2.685,2.684 -1.481,0 -2.684,-1.202 -2.684,-2.684 0,-1.482 1.203,-2.685 2.684,-2.685 m 6.284,33.711 c 0,2.079 -1.683,3.763 -3.763,3.763 -2.08,0 -3.764,-1.684 -3.764,-3.763 0,-2.08 1.684,-3.764 3.764,-3.764 2.08,0 3.763,1.684 3.763,3.764 m 22.356,-17.801 c 1.482,0 2.685,1.203 2.685,2.685 0,1.483 -1.203,2.684 -2.685,2.684 -1.483,0 -2.685,-1.201 -2.685,-2.684 0,-1.482 1.202,-2.685 2.685,-2.685 M 224.946,98.46 c 1.482,0 2.685,1.203 2.685,2.685 0,1.482 -1.203,2.686 -2.685,2.686 -1.483,0 -2.686,-1.204 -2.686,-2.686 0,-1.482 1.203,-2.685 2.686,-2.685 m 5.171,-22.772 c 1.318,0 2.387,1.069 2.387,2.387 0,1.318 -1.069,2.386 -2.387,2.386 -1.317,0 -2.386,-1.068 -2.386,-2.386 0,-1.318 1.069,-2.387 2.386,-2.387 M 249.21,94.78 c 1.318,0 2.387,1.07 2.387,2.387 0,1.318 -1.069,2.387 -2.387,2.387 -1.317,0 -2.387,-1.069 -2.387,-2.387 0,-1.317 1.07,-2.387 2.387,-2.387 M 92.478,246.552 c 6.695,-9.143 17.23,-23.717 31.857,-40.51 -1.151,-6.678 -8.246,-16.193 -8.246,-16.193 l 28.705,-7.16 c 12.389,-12.554 27.754,-25.181 44.445,-37.57 1.208,-8.5 -0.607,-20.808 -4.376,-38.536 l 42.874,11.609 c 22.269,-12.272 48.044,-22.563 76.639,-29.551 -0.695,-0.867 -1.397,-1.728 -2.111,-2.58 -17.377,5.797 -33.902,7.045 -47.884,-2.02 -9.347,-4.773 -6.762,-19.491 -26.915,-26.85 -21.302,-7.16 -41.104,-5.17 -57.015,10.741 15.911,-4.973 31.026,0.994 37.39,10.54 11.666,17.304 -10.143,21.082 -28.64,19.095 -35.003,-3.184 -67.024,-26.056 -95.465,0 -4.773,6.363 -8.353,17.5 -1.989,27.047 0,-3.182 2.587,-10.939 5.172,-14.32 16.905,-14.319 40.373,-2.785 45.245,16.517 6.363,44.551 -32.517,63.038 -77.067,63.038 -3.809,0 -7.666,-0.2 -11.546,-0.559 1.332,21.365 7.258,41.502 16.803,59.436 16.377,-2.717 28.916,-2.336 32.124,-2.174"
         inkscape:connector-curvature="0"
         style="fill:#36a0ce" />
      <path
         id="path20"
         d="m 429.401,103.93 c -61.814,1.514 -111.041,17.006 -148.826,36.329 l 4.733,-8.485 h -10e-4 l -17.6,31.557 5.65,-19.258 c -1.951,1.062 -3.865,2.136 -5.75,3.215 l -11.237,21.383 5.665,-18.117 c -2.59,1.556 -5.111,3.119 -7.57,4.695 l -8.438,16.302 3.588,-13.13 c -46.797,31.256 -68.288,64.31 -68.288,64.31 0,0 166.531,-42.429 197.557,-57.544 -4.764,-6.151 -66.03,-9.149 -71.997,-12.729 0.261,-0.299 0.532,-0.584 0.801,-0.875 l -0.53,0.025 0.875,-0.404 c 28.205,-29.855 96.707,-18.633 96.707,-18.633 0,0 11.931,-9.151 24.661,-28.641 m -29.952,37.024 c -6.976,-2.391 -14.967,-3.601 -23.804,-3.601 -19.96,0 -40.038,6.183 -51.084,10.25 l 10.427,-0.491 6.623,-4.686 4.564,4.192 8.43,-6.273 4.728,6.957 10.653,-8.718 2.193,8.399 10.96,-7.925 3.055,10.041 c 2.398,-1.291 7.207,-4.016 13.255,-8.145 m -63.377,49.924 c -15.838,5.305 -33.584,10.56 -51.462,15.314 -5.921,1.575 -11.857,3.098 -17.742,4.545 l 27.691,-2.59 c 0,0 3.58,10.739 3.446,25.854 -0.897,-1.174 -32.365,-16.063 -42.084,-20.643 -3.694,0.862 -7.351,1.69 -10.952,2.479 -12.867,2.816 -22.636,4.793 -37.589,8.432 -3.862,0.939 -8.066,1.986 -12.765,3.191 l 9.413,-1.016 5.405,9.944 -26.49,-5.885 c -8.341,2.209 -18.067,4.851 -29.625,8.06 l -23.042,19.704 5.313,-14.739 c -9.629,2.717 -20.315,5.76 -32.272,9.194 -1.345,0.386 -2.69,0.773 -4.067,1.17 l 21.876,39.377 c 0,0 -25.455,-11.93 -34.472,-20.418 -2.17,-2.041 -6.97,-3.268 -13.312,-3.909 26.813,35.073 69.065,57.741 116.519,57.741 77.207,0 140.663,-59.989 146.211,-135.805 m -185.776,34.902 71.601,-54.229 c 0,0 -4.164,1.499 -10.216,3.69 l -50.935,38.235 c 0,0 3.507,-15.131 5.755,-21.465 -0.367,0.164 -0.566,0.269 -0.566,0.306 0,0.629 -15.639,33.463 -15.639,33.463 M 315.24,97.166 c 0,2.53 2.315,4.577 5.172,4.577 2.855,0 5.171,-2.047 5.171,-4.577 0,-2.525 -2.316,-4.573 -5.171,-4.573 -2.857,0 -5.172,2.048 -5.172,4.573 m 122.779,-0.13 c 0,0 -2.676,14.422 -19.782,32.225 -4.134,4.303 -9.101,8.801 -15.088,13.343 -0.107,-0.037 -0.231,-0.072 -0.339,-0.109 -2.633,1.839 -5.054,3.431 -7.192,4.774 -5.759,3.615 -9.471,5.451 -9.688,5.558 l -1.678,0.82 -2.206,-7.244 -0.654,-2.154 -11.117,8.037 -1.666,-6.377 -0.448,-1.719 -9.504,7.777 -4.213,-6.198 c -0.601,0.003 -1.206,0.007 -1.814,0.013 l -6.669,4.961 -4.61,-4.235 -5.284,3.739 -0.821,0.039 c 30.928,1.423 55.572,11.453 55.572,11.453 l -2.123,6.364 c -4.491,3.277 -11.554,6.916 -20.417,10.724 0.003,0.416 0.015,0.832 0.015,1.25 0,98.385 -80.045,178.428 -178.432,178.428 -65.837,0 -123.454,-35.846 -154.375,-89.043 -13.285,1.037 -26.139,2.627 -34.486,3.92 1.842,-1.246 3.703,-2.424 5.575,-3.543 39.113,-23.377 83.526,-20.059 83.526,-20.059 0.727,-0.98 1.526,-2.066 2.377,-3.228 6.695,-9.143 17.23,-23.717 31.859,-40.51 -1.153,-6.678 -8.248,-16.193 -8.248,-16.193 l 26.545,-3.537 c 13.14,-13.315 28.603,-27.153 46.469,-40.26 0.053,-0.303 0.092,-0.621 0.136,-0.934 1.208,-8.5 -0.607,-20.807 -4.376,-38.535 l 41.892,15.385 c 38.863,-21.415 86.189,-37.412 142.782,-39.717 35.321,2.122 68.482,14.785 68.482,14.785 M 29.004,257.257 C 17.745,233.888 11.432,207.706 11.432,180.077 11.432,81.689 91.474,1.645 189.861,1.645 c 62.218,0 117.09,32.016 149.034,80.432 -11.905,1.639 -23.425,3.851 -34.52,6.563 -0.694,-0.867 -1.396,-1.727 -2.11,-2.579 C 275.35,53.935 234.953,33.466 189.861,33.466 c -80.838,0 -146.607,65.769 -146.607,146.611 0,3.093 0.107,6.164 0.297,9.213 1.332,21.365 7.258,41.502 16.803,59.436 -9.515,1.58 -20.325,4.207 -31.35,8.531"
         inkscape:connector-curvature="0"
         style="fill:#0a0b09" />
    </g>
  </g>
</svg>
